<?xml version="1.0" standalone="no"?>
<!DOCTYPE svg PUBLIC "-//W3C//DTD SVG 20010904//EN"
 "http://www.w3.org/TR/2001/REC-SVG-20010904/DTD/svg10.dtd">
<svg version="1.0" xmlns="http://www.w3.org/2000/svg"
 width="1280.000000pt" height="920.000000pt" viewBox="0 0 1280.000000 920.000000"
 preserveAspectRatio="xMidYMid meet">
<g transform="translate(0.000000,920.000000) scale(0.100000,-0.100000)"
fill="#000000" stroke="none">
<path d="M5810 9184 c-19 -7 -66 -22 -105 -34 -58 -17 -75 -27 -100 -60 -16
-21 -61 -73 -98 -114 l-69 -75 26 -193 c14 -106 37 -317 51 -468 15 -151 44
-435 64 -630 l38 -355 -19 -320 c-17 -296 -21 -331 -54 -470 -19 -83 -39 -157
-43 -164 -16 -26 -31 -1 -25 42 5 37 -5 67 -76 237 -246 589 -409 1031 -560
1517 -28 91 -40 114 -100 190 -38 49 -115 128 -170 177 l-101 88 -23 -21 c-12
-11 -27 -21 -34 -21 -6 0 -61 -62 -123 -137 -62 -76 -150 -176 -195 -223 -44
-47 -130 -155 -189 -240 -88 -125 -146 -193 -298 -350 -271 -281 -418 -398
-676 -543 -113 -64 -304 -163 -423 -221 l-217 -105 -118 -10 c-187 -17 -161
-26 -338 112 l-159 122 -93 290 c-73 226 -116 340 -196 517 -56 126 -106 228
-111 228 -8 0 -272 -225 -281 -241 -3 -4 -12 -59 -19 -121 -21 -160 -29 -516
-16 -693 5 -82 17 -320 25 -527 l14 -378 41 -73 c22 -41 40 -82 40 -91 0 -10
-27 -81 -60 -159 l-61 -141 0 -138 1 -138 -129 -334 -129 -334 -42 -248 c-23
-137 -50 -267 -59 -289 -10 -22 -55 -104 -100 -183 -82 -143 -82 -143 -141
-370 -33 -125 -80 -330 -106 -456 l-46 -229 21 -116 c11 -64 25 -172 31 -241
6 -69 12 -137 15 -152 3 -21 -10 -46 -60 -115 -36 -48 -65 -95 -65 -104 0 -9
-7 -22 -15 -29 -8 -7 -20 -31 -25 -54 -6 -22 -21 -66 -34 -96 -22 -50 -24 -74
-30 -280 -5 -203 -26 -463 -41 -515 -3 -12 21 -102 58 -215 50 -154 68 -197
85 -206 12 -6 30 -18 39 -26 10 -9 70 -32 133 -53 63 -21 183 -64 265 -95 149
-58 153 -58 525 -118 424 -68 503 -74 1315 -92 226 -5 570 -14 765 -20 1114
-34 1242 -36 1570 -27 495 13 1192 -8 1440 -43 74 -11 320 -46 545 -79 252
-37 527 -70 715 -86 168 -14 330 -31 361 -36 38 -8 82 -8 140 -1 54 7 102 7
134 1 32 -6 66 -6 95 0 73 16 131 20 436 36 159 8 381 26 494 40 113 14 340
37 505 50 l300 24 361 85 c199 47 412 104 475 126 63 23 152 52 199 65 134 37
290 104 655 280 187 90 404 193 481 229 140 64 145 67 403 278 213 173 261
217 261 237 0 14 10 35 21 47 20 21 21 27 10 66 -16 58 -71 488 -72 563 -2 94
-7 105 -66 127 -49 18 -61 30 -163 163 -60 79 -116 148 -124 152 -7 4 -64 55
-125 113 -61 57 -117 107 -124 111 -6 3 -55 9 -107 13 -52 4 -130 16 -172 27
l-77 19 -213 -24 -213 -25 -155 -61 -155 -62 -255 -5 -255 -6 -210 57 c-115
32 -220 64 -233 72 -19 12 -22 23 -22 74 0 32 -4 62 -10 65 -5 3 -202 77 -437
164 -506 187 -877 349 -970 423 -134 106 -235 235 -482 614 -129 197 -244 370
-256 382 -12 13 -110 79 -216 146 l-194 123 -40 114 c-33 94 -63 151 -171 324
-72 116 -137 221 -144 235 -25 48 -177 275 -194 289 -9 8 -36 41 -58 73 -31
43 -75 83 -167 152 -69 51 -137 100 -151 108 -22 14 -151 29 -279 32 -29 1
-36 6 -44 31 -5 17 -13 298 -17 625 -6 459 -12 654 -29 855 -11 143 -30 478
-41 744 l-20 484 -73 84 c-96 111 -175 214 -183 236 -6 20 -16 20 -64 1z"/>
</g>
</svg>
